<mxfile host="app.diagrams.net" modified="2020-09-01T10:26:43.286Z" agent="5.0 (Macintosh; Intel Mac OS X 10_15_6) AppleWebKit/537.36 (KHTML, like Gecko) Chrome/85.0.4183.83 Safari/537.36" etag="S3b6g8-usv1yRxTEaexr" version="13.6.5" type="github">
  <diagram id="9E-KX1OYeNtc_dwp0FWX" name="Page-1">
    <mxGraphModel dx="1186" dy="764" grid="1" gridSize="10" guides="1" tooltips="1" connect="1" arrows="1" fold="1" page="1" pageScale="1" pageWidth="827" pageHeight="1169" math="0" shadow="0">
      <root>
        <mxCell id="0" />
        <mxCell id="1" parent="0" />
        <mxCell id="xssJgwZg8atmYNYbF4nx-97" value="&lt;b&gt;Flujo Manual&lt;/b&gt;" style="rounded=0;whiteSpace=wrap;html=1;align=left;verticalAlign=top;fillColor=#e1d5e7;strokeColor=#9673a6;dashed=1;" vertex="1" parent="1">
          <mxGeometry x="827" y="920" width="700" height="140" as="geometry" />
        </mxCell>
        <mxCell id="xssJgwZg8atmYNYbF4nx-96" value="&lt;b&gt;Análisis&lt;/b&gt;" style="rounded=0;whiteSpace=wrap;html=1;align=left;verticalAlign=top;fillColor=#d5e8d4;strokeColor=#82b366;dashed=1;" vertex="1" parent="1">
          <mxGeometry x="827" y="830" width="700" height="80" as="geometry" />
        </mxCell>
        <mxCell id="xssJgwZg8atmYNYbF4nx-95" value="&lt;b&gt;Flujo Automático&lt;/b&gt;" style="rounded=0;whiteSpace=wrap;html=1;align=left;verticalAlign=top;fillColor=#dae8fc;strokeColor=#6c8ebf;dashed=1;" vertex="1" parent="1">
          <mxGeometry x="827" y="680" width="700" height="140" as="geometry" />
        </mxCell>
        <mxCell id="ff_O2VOX496z6qqw2j3c-24" value="&lt;b&gt;Flujo Manual&lt;/b&gt;" style="rounded=0;whiteSpace=wrap;html=1;align=left;verticalAlign=top;fillColor=#d5e8d4;strokeColor=#82b366;dashed=1;" parent="1" vertex="1">
          <mxGeometry x="10" y="800" width="700" height="190" as="geometry" />
        </mxCell>
        <mxCell id="ff_O2VOX496z6qqw2j3c-23" value="&lt;b&gt;Flujo Automático&lt;/b&gt;" style="rounded=0;whiteSpace=wrap;html=1;align=left;verticalAlign=top;fillColor=#dae8fc;strokeColor=#6c8ebf;dashed=1;" parent="1" vertex="1">
          <mxGeometry x="10" y="650" width="700" height="140" as="geometry" />
        </mxCell>
        <mxCell id="ff_O2VOX496z6qqw2j3c-35" style="edgeStyle=orthogonalEdgeStyle;rounded=0;orthogonalLoop=1;jettySize=auto;html=1;exitX=1;exitY=0.5;exitDx=0;exitDy=0;entryX=0;entryY=0.5;entryDx=0;entryDy=0;" parent="1" source="ff_O2VOX496z6qqw2j3c-2" target="ff_O2VOX496z6qqw2j3c-32" edge="1">
          <mxGeometry relative="1" as="geometry" />
        </mxCell>
        <mxCell id="ff_O2VOX496z6qqw2j3c-36" style="edgeStyle=orthogonalEdgeStyle;rounded=0;orthogonalLoop=1;jettySize=auto;html=1;exitX=0.5;exitY=1;exitDx=0;exitDy=0;" parent="1" source="ff_O2VOX496z6qqw2j3c-2" target="ff_O2VOX496z6qqw2j3c-33" edge="1">
          <mxGeometry relative="1" as="geometry" />
        </mxCell>
        <mxCell id="ff_O2VOX496z6qqw2j3c-2" value="¿Aplica?" style="rhombus;whiteSpace=wrap;html=1;" parent="1" vertex="1">
          <mxGeometry x="195" y="320" width="80" height="80" as="geometry" />
        </mxCell>
        <mxCell id="ff_O2VOX496z6qqw2j3c-4" value="¿Quién lo decide?" style="text;html=1;strokeColor=none;fillColor=none;align=center;verticalAlign=middle;whiteSpace=wrap;rounded=0;" parent="1" vertex="1">
          <mxGeometry x="20" y="350" width="110" height="20" as="geometry" />
        </mxCell>
        <mxCell id="ff_O2VOX496z6qqw2j3c-5" value="¿A quién se lo debe decir el usuario?" style="text;html=1;strokeColor=none;fillColor=none;align=center;verticalAlign=middle;whiteSpace=wrap;rounded=0;" parent="1" vertex="1">
          <mxGeometry x="20" y="230" width="110" height="20" as="geometry" />
        </mxCell>
        <mxCell id="ff_O2VOX496z6qqw2j3c-7" value="¿Quién hace la especificación del report?" style="text;html=1;strokeColor=none;fillColor=none;align=center;verticalAlign=middle;whiteSpace=wrap;rounded=0;" parent="1" vertex="1">
          <mxGeometry x="20" y="460" width="110" height="20" as="geometry" />
        </mxCell>
        <mxCell id="ff_O2VOX496z6qqw2j3c-38" style="edgeStyle=orthogonalEdgeStyle;rounded=0;orthogonalLoop=1;jettySize=auto;html=1;exitX=1;exitY=0.5;exitDx=0;exitDy=0;entryX=0;entryY=0.5;entryDx=0;entryDy=0;" parent="1" source="ff_O2VOX496z6qqw2j3c-8" target="ff_O2VOX496z6qqw2j3c-10" edge="1">
          <mxGeometry relative="1" as="geometry" />
        </mxCell>
        <mxCell id="mcTVBf5K7GpexhiSofJr-4" style="edgeStyle=orthogonalEdgeStyle;rounded=0;orthogonalLoop=1;jettySize=auto;html=1;exitX=0.5;exitY=1;exitDx=0;exitDy=0;" parent="1" source="ff_O2VOX496z6qqw2j3c-8" target="mcTVBf5K7GpexhiSofJr-1" edge="1">
          <mxGeometry relative="1" as="geometry" />
        </mxCell>
        <mxCell id="ff_O2VOX496z6qqw2j3c-8" value="¿Está la fuente de datos en Fusion?" style="rhombus;whiteSpace=wrap;html=1;" parent="1" vertex="1">
          <mxGeometry x="195" y="544.5" width="80" height="75.5" as="geometry" />
        </mxCell>
        <mxCell id="ff_O2VOX496z6qqw2j3c-39" style="edgeStyle=orthogonalEdgeStyle;rounded=0;orthogonalLoop=1;jettySize=auto;html=1;exitX=1;exitY=0.5;exitDx=0;exitDy=0;entryX=0;entryY=0.5;entryDx=0;entryDy=0;" parent="1" source="ff_O2VOX496z6qqw2j3c-10" target="ff_O2VOX496z6qqw2j3c-25" edge="1">
          <mxGeometry relative="1" as="geometry" />
        </mxCell>
        <mxCell id="ff_O2VOX496z6qqw2j3c-44" style="edgeStyle=orthogonalEdgeStyle;rounded=0;orthogonalLoop=1;jettySize=auto;html=1;exitX=0.5;exitY=1;exitDx=0;exitDy=0;" parent="1" source="ff_O2VOX496z6qqw2j3c-10" target="ff_O2VOX496z6qqw2j3c-12" edge="1">
          <mxGeometry relative="1" as="geometry" />
        </mxCell>
        <mxCell id="ff_O2VOX496z6qqw2j3c-10" value="¿Debería estar?" style="rhombus;whiteSpace=wrap;html=1;" parent="1" vertex="1">
          <mxGeometry x="375" y="542" width="80" height="80" as="geometry" />
        </mxCell>
        <mxCell id="ff_O2VOX496z6qqw2j3c-34" style="edgeStyle=orthogonalEdgeStyle;rounded=0;orthogonalLoop=1;jettySize=auto;html=1;exitX=0.5;exitY=1;exitDx=0;exitDy=0;entryX=0.5;entryY=0;entryDx=0;entryDy=0;" parent="1" source="ff_O2VOX496z6qqw2j3c-11" target="ff_O2VOX496z6qqw2j3c-2" edge="1">
          <mxGeometry relative="1" as="geometry" />
        </mxCell>
        <mxCell id="ff_O2VOX496z6qqw2j3c-11" value="&lt;span&gt;Solicitar/detectar necesidad sobre datos que no tenemos ahora mismo&lt;/span&gt;" style="ellipse;whiteSpace=wrap;html=1;" parent="1" vertex="1">
          <mxGeometry x="175" y="210" width="120" height="80" as="geometry" />
        </mxCell>
        <mxCell id="mcTVBf5K7GpexhiSofJr-3" style="edgeStyle=orthogonalEdgeStyle;rounded=0;orthogonalLoop=1;jettySize=auto;html=1;exitX=0;exitY=0.5;exitDx=0;exitDy=0;entryX=0.75;entryY=0;entryDx=0;entryDy=0;" parent="1" source="ff_O2VOX496z6qqw2j3c-12" target="mcTVBf5K7GpexhiSofJr-1" edge="1">
          <mxGeometry relative="1" as="geometry" />
        </mxCell>
        <mxCell id="ff_O2VOX496z6qqw2j3c-12" value="Implementación ingesta" style="rounded=0;whiteSpace=wrap;html=1;" parent="1" vertex="1">
          <mxGeometry x="355" y="659" width="120" height="60" as="geometry" />
        </mxCell>
        <mxCell id="ff_O2VOX496z6qqw2j3c-13" value="¿SRE?&amp;nbsp;" style="text;html=1;strokeColor=none;fillColor=none;align=center;verticalAlign=middle;whiteSpace=wrap;rounded=0;" parent="1" vertex="1">
          <mxGeometry x="20" y="690" width="110" height="20" as="geometry" />
        </mxCell>
        <mxCell id="ff_O2VOX496z6qqw2j3c-14" value="Implementar Triggers" style="rounded=0;whiteSpace=wrap;html=1;" parent="1" vertex="1">
          <mxGeometry x="150" y="820" width="270" height="30" as="geometry" />
        </mxCell>
        <mxCell id="ff_O2VOX496z6qqw2j3c-15" value="Implementar Cloud Functions" style="rounded=0;whiteSpace=wrap;html=1;" parent="1" vertex="1">
          <mxGeometry x="150" y="850" width="270" height="30" as="geometry" />
        </mxCell>
        <mxCell id="ff_O2VOX496z6qqw2j3c-16" value="Implementar Dataflows" style="rounded=0;whiteSpace=wrap;html=1;" parent="1" vertex="1">
          <mxGeometry x="150" y="880" width="270" height="30" as="geometry" />
        </mxCell>
        <mxCell id="ff_O2VOX496z6qqw2j3c-17" value="Insertar datos en big query" style="rounded=0;whiteSpace=wrap;html=1;" parent="1" vertex="1">
          <mxGeometry x="150" y="910" width="270" height="30" as="geometry" />
        </mxCell>
        <mxCell id="ff_O2VOX496z6qqw2j3c-19" value="¿Equipo Data?&amp;nbsp;" style="text;html=1;strokeColor=none;fillColor=none;align=center;verticalAlign=middle;whiteSpace=wrap;rounded=0;" parent="1" vertex="1">
          <mxGeometry x="20" y="860" width="110" height="20" as="geometry" />
        </mxCell>
        <mxCell id="ff_O2VOX496z6qqw2j3c-21" value="Report en Data Studio" style="ellipse;whiteSpace=wrap;html=1;" parent="1" vertex="1">
          <mxGeometry x="175" y="1230" width="120" height="80" as="geometry" />
        </mxCell>
        <mxCell id="ff_O2VOX496z6qqw2j3c-22" value="¿Equipo Data? ¿se lo hace el usuario?" style="text;html=1;strokeColor=none;fillColor=none;align=center;verticalAlign=middle;whiteSpace=wrap;rounded=0;" parent="1" vertex="1">
          <mxGeometry x="20" y="1250" width="110" height="20" as="geometry" />
        </mxCell>
        <mxCell id="ff_O2VOX496z6qqw2j3c-41" style="edgeStyle=orthogonalEdgeStyle;rounded=0;orthogonalLoop=1;jettySize=auto;html=1;exitX=0.5;exitY=1;exitDx=0;exitDy=0;entryX=1;entryY=0.5;entryDx=0;entryDy=0;" parent="1" source="ff_O2VOX496z6qqw2j3c-25" target="ff_O2VOX496z6qqw2j3c-14" edge="1">
          <mxGeometry relative="1" as="geometry" />
        </mxCell>
        <mxCell id="ff_O2VOX496z6qqw2j3c-25" value="Acordar Formato Subida" style="rounded=0;whiteSpace=wrap;html=1;" parent="1" vertex="1">
          <mxGeometry x="560" y="552" width="120" height="60" as="geometry" />
        </mxCell>
        <mxCell id="ff_O2VOX496z6qqw2j3c-45" style="edgeStyle=orthogonalEdgeStyle;rounded=0;orthogonalLoop=1;jettySize=auto;html=1;exitX=0.5;exitY=1;exitDx=0;exitDy=0;" parent="1" source="ff_O2VOX496z6qqw2j3c-26" target="ff_O2VOX496z6qqw2j3c-28" edge="1">
          <mxGeometry relative="1" as="geometry" />
        </mxCell>
        <mxCell id="ff_O2VOX496z6qqw2j3c-26" value="¿Documentación de tablas y columnas en big query?" style="rounded=0;whiteSpace=wrap;html=1;" parent="1" vertex="1">
          <mxGeometry x="150" y="940" width="270" height="30" as="geometry" />
        </mxCell>
        <mxCell id="ff_O2VOX496z6qqw2j3c-46" style="edgeStyle=orthogonalEdgeStyle;rounded=0;orthogonalLoop=1;jettySize=auto;html=1;exitX=0.5;exitY=1;exitDx=0;exitDy=0;entryX=0.5;entryY=0;entryDx=0;entryDy=0;" parent="1" source="ff_O2VOX496z6qqw2j3c-28" target="ff_O2VOX496z6qqw2j3c-30" edge="1">
          <mxGeometry relative="1" as="geometry" />
        </mxCell>
        <mxCell id="ff_O2VOX496z6qqw2j3c-28" value="Subir documentación al gateway" style="rounded=0;whiteSpace=wrap;html=1;" parent="1" vertex="1">
          <mxGeometry x="175" y="1040" width="120" height="60" as="geometry" />
        </mxCell>
        <mxCell id="ff_O2VOX496z6qqw2j3c-29" value="¿Qué usamos para esto? ¿Se puede usar el schema?¿Usamos el Schema JSON?" style="text;html=1;strokeColor=none;fillColor=none;align=center;verticalAlign=middle;whiteSpace=wrap;rounded=0;" parent="1" vertex="1">
          <mxGeometry x="10" y="1050" width="110" height="20" as="geometry" />
        </mxCell>
        <mxCell id="ff_O2VOX496z6qqw2j3c-47" style="edgeStyle=orthogonalEdgeStyle;rounded=0;orthogonalLoop=1;jettySize=auto;html=1;exitX=0.5;exitY=1;exitDx=0;exitDy=0;entryX=0.5;entryY=0;entryDx=0;entryDy=0;" parent="1" source="ff_O2VOX496z6qqw2j3c-30" target="ff_O2VOX496z6qqw2j3c-21" edge="1">
          <mxGeometry relative="1" as="geometry" />
        </mxCell>
        <mxCell id="ff_O2VOX496z6qqw2j3c-30" value="Permisionado y acceso a tabla(s)" style="rounded=0;whiteSpace=wrap;html=1;" parent="1" vertex="1">
          <mxGeometry x="175" y="1130" width="120" height="60" as="geometry" />
        </mxCell>
        <mxCell id="ff_O2VOX496z6qqw2j3c-31" value="¿Quién?&amp;nbsp; ¿Usamos los grupos de Google?" style="text;html=1;strokeColor=none;fillColor=none;align=center;verticalAlign=middle;whiteSpace=wrap;rounded=0;" parent="1" vertex="1">
          <mxGeometry x="20" y="1150" width="110" height="20" as="geometry" />
        </mxCell>
        <mxCell id="ff_O2VOX496z6qqw2j3c-32" value="Exit" style="rounded=0;whiteSpace=wrap;html=1;dashed=1;" parent="1" vertex="1">
          <mxGeometry x="360" y="330" width="120" height="60" as="geometry" />
        </mxCell>
        <mxCell id="ff_O2VOX496z6qqw2j3c-37" style="edgeStyle=orthogonalEdgeStyle;rounded=0;orthogonalLoop=1;jettySize=auto;html=1;exitX=0.5;exitY=1;exitDx=0;exitDy=0;entryX=0.5;entryY=0;entryDx=0;entryDy=0;" parent="1" source="ff_O2VOX496z6qqw2j3c-33" target="ff_O2VOX496z6qqw2j3c-8" edge="1">
          <mxGeometry relative="1" as="geometry" />
        </mxCell>
        <mxCell id="ff_O2VOX496z6qqw2j3c-33" value="&lt;span&gt;Toma de&lt;br&gt;&amp;nbsp;requisitos&lt;/span&gt;" style="shape=parallelogram;perimeter=parallelogramPerimeter;whiteSpace=wrap;html=1;fixedSize=1;align=center;" parent="1" vertex="1">
          <mxGeometry x="175" y="440" width="120" height="60" as="geometry" />
        </mxCell>
        <mxCell id="ff_O2VOX496z6qqw2j3c-48" value="No" style="text;html=1;strokeColor=none;fillColor=none;align=center;verticalAlign=middle;whiteSpace=wrap;rounded=0;" parent="1" vertex="1">
          <mxGeometry x="295" y="340" width="40" height="20" as="geometry" />
        </mxCell>
        <mxCell id="ff_O2VOX496z6qqw2j3c-49" value="No" style="text;html=1;strokeColor=none;fillColor=none;align=center;verticalAlign=middle;whiteSpace=wrap;rounded=0;" parent="1" vertex="1">
          <mxGeometry x="305" y="565" width="40" height="20" as="geometry" />
        </mxCell>
        <mxCell id="ff_O2VOX496z6qqw2j3c-50" value="No" style="text;html=1;strokeColor=none;fillColor=none;align=center;verticalAlign=middle;whiteSpace=wrap;rounded=0;" parent="1" vertex="1">
          <mxGeometry x="480" y="565" width="40" height="20" as="geometry" />
        </mxCell>
        <mxCell id="ff_O2VOX496z6qqw2j3c-52" value="Si" style="text;html=1;strokeColor=none;fillColor=none;align=center;verticalAlign=middle;whiteSpace=wrap;rounded=0;" parent="1" vertex="1">
          <mxGeometry x="190" y="410" width="40" height="20" as="geometry" />
        </mxCell>
        <mxCell id="ff_O2VOX496z6qqw2j3c-53" value="Si" style="text;html=1;strokeColor=none;fillColor=none;align=center;verticalAlign=middle;whiteSpace=wrap;rounded=0;" parent="1" vertex="1">
          <mxGeometry x="190" y="510" width="40" height="20" as="geometry" />
        </mxCell>
        <mxCell id="ff_O2VOX496z6qqw2j3c-54" value="Si" style="text;html=1;strokeColor=none;fillColor=none;align=center;verticalAlign=middle;whiteSpace=wrap;rounded=0;" parent="1" vertex="1">
          <mxGeometry x="374" y="630" width="40" height="20" as="geometry" />
        </mxCell>
        <mxCell id="ff_O2VOX496z6qqw2j3c-55" value="Si" style="text;html=1;strokeColor=none;fillColor=none;align=center;verticalAlign=middle;whiteSpace=wrap;rounded=0;" parent="1" vertex="1">
          <mxGeometry x="143" y="730" width="40" height="20" as="geometry" />
        </mxCell>
        <mxCell id="ff_O2VOX496z6qqw2j3c-56" value="¿Equipo Data?&amp;nbsp;" style="text;html=1;strokeColor=none;fillColor=none;align=center;verticalAlign=middle;whiteSpace=wrap;rounded=0;" parent="1" vertex="1">
          <mxGeometry x="30" y="575" width="110" height="20" as="geometry" />
        </mxCell>
        <mxCell id="mcTVBf5K7GpexhiSofJr-5" style="edgeStyle=orthogonalEdgeStyle;rounded=0;orthogonalLoop=1;jettySize=auto;html=1;exitX=0.5;exitY=1;exitDx=0;exitDy=0;" parent="1" source="mcTVBf5K7GpexhiSofJr-1" target="ff_O2VOX496z6qqw2j3c-14" edge="1">
          <mxGeometry relative="1" as="geometry" />
        </mxCell>
        <mxCell id="mcTVBf5K7GpexhiSofJr-1" value="Transfer a GCP" style="rounded=0;whiteSpace=wrap;html=1;" parent="1" vertex="1">
          <mxGeometry x="175" y="710" width="120" height="60" as="geometry" />
        </mxCell>
        <mxCell id="xssJgwZg8atmYNYbF4nx-47" style="edgeStyle=orthogonalEdgeStyle;rounded=0;orthogonalLoop=1;jettySize=auto;html=1;exitX=1;exitY=0.5;exitDx=0;exitDy=0;entryX=0;entryY=0.5;entryDx=0;entryDy=0;" edge="1" parent="1" source="xssJgwZg8atmYNYbF4nx-49" target="xssJgwZg8atmYNYbF4nx-80">
          <mxGeometry relative="1" as="geometry" />
        </mxCell>
        <mxCell id="xssJgwZg8atmYNYbF4nx-48" style="edgeStyle=orthogonalEdgeStyle;rounded=0;orthogonalLoop=1;jettySize=auto;html=1;exitX=0.5;exitY=1;exitDx=0;exitDy=0;" edge="1" parent="1" source="xssJgwZg8atmYNYbF4nx-49" target="xssJgwZg8atmYNYbF4nx-82">
          <mxGeometry relative="1" as="geometry" />
        </mxCell>
        <mxCell id="xssJgwZg8atmYNYbF4nx-49" value="¿Aplica?" style="rhombus;whiteSpace=wrap;html=1;" vertex="1" parent="1">
          <mxGeometry x="1005" y="360" width="80" height="80" as="geometry" />
        </mxCell>
        <mxCell id="xssJgwZg8atmYNYbF4nx-50" value="¿Quién lo decide?" style="text;html=1;strokeColor=none;fillColor=none;align=center;verticalAlign=middle;whiteSpace=wrap;rounded=0;" vertex="1" parent="1">
          <mxGeometry x="830" y="390" width="110" height="20" as="geometry" />
        </mxCell>
        <mxCell id="xssJgwZg8atmYNYbF4nx-51" value="¿A quién se lo debe decir el usuario?" style="text;html=1;strokeColor=none;fillColor=none;align=center;verticalAlign=middle;whiteSpace=wrap;rounded=0;" vertex="1" parent="1">
          <mxGeometry x="830" y="270" width="110" height="20" as="geometry" />
        </mxCell>
        <mxCell id="xssJgwZg8atmYNYbF4nx-52" value="¿Quién hace la especificación del report?" style="text;html=1;strokeColor=none;fillColor=none;align=center;verticalAlign=middle;whiteSpace=wrap;rounded=0;" vertex="1" parent="1">
          <mxGeometry x="830" y="500" width="110" height="20" as="geometry" />
        </mxCell>
        <mxCell id="xssJgwZg8atmYNYbF4nx-53" style="edgeStyle=orthogonalEdgeStyle;rounded=0;orthogonalLoop=1;jettySize=auto;html=1;exitX=1;exitY=0.5;exitDx=0;exitDy=0;entryX=0;entryY=0.5;entryDx=0;entryDy=0;" edge="1" parent="1" source="xssJgwZg8atmYNYbF4nx-55" target="xssJgwZg8atmYNYbF4nx-58">
          <mxGeometry relative="1" as="geometry" />
        </mxCell>
        <mxCell id="xssJgwZg8atmYNYbF4nx-54" style="edgeStyle=orthogonalEdgeStyle;rounded=0;orthogonalLoop=1;jettySize=auto;html=1;exitX=0.5;exitY=1;exitDx=0;exitDy=0;" edge="1" parent="1" source="xssJgwZg8atmYNYbF4nx-55" target="xssJgwZg8atmYNYbF4nx-92">
          <mxGeometry relative="1" as="geometry" />
        </mxCell>
        <mxCell id="xssJgwZg8atmYNYbF4nx-55" value="¿Está la fuente de datos en Fusion?" style="rhombus;whiteSpace=wrap;html=1;" vertex="1" parent="1">
          <mxGeometry x="1005" y="584.5" width="80" height="75.5" as="geometry" />
        </mxCell>
        <mxCell id="xssJgwZg8atmYNYbF4nx-56" style="edgeStyle=orthogonalEdgeStyle;rounded=0;orthogonalLoop=1;jettySize=auto;html=1;exitX=1;exitY=0.5;exitDx=0;exitDy=0;entryX=0;entryY=0.5;entryDx=0;entryDy=0;" edge="1" parent="1" source="xssJgwZg8atmYNYbF4nx-58" target="xssJgwZg8atmYNYbF4nx-72">
          <mxGeometry relative="1" as="geometry" />
        </mxCell>
        <mxCell id="xssJgwZg8atmYNYbF4nx-57" style="edgeStyle=orthogonalEdgeStyle;rounded=0;orthogonalLoop=1;jettySize=auto;html=1;exitX=0.5;exitY=1;exitDx=0;exitDy=0;" edge="1" parent="1" source="xssJgwZg8atmYNYbF4nx-58" target="xssJgwZg8atmYNYbF4nx-62">
          <mxGeometry relative="1" as="geometry" />
        </mxCell>
        <mxCell id="xssJgwZg8atmYNYbF4nx-58" value="¿Debería estar?" style="rhombus;whiteSpace=wrap;html=1;" vertex="1" parent="1">
          <mxGeometry x="1185" y="582" width="80" height="80" as="geometry" />
        </mxCell>
        <mxCell id="xssJgwZg8atmYNYbF4nx-59" style="edgeStyle=orthogonalEdgeStyle;rounded=0;orthogonalLoop=1;jettySize=auto;html=1;exitX=0.5;exitY=1;exitDx=0;exitDy=0;entryX=0.5;entryY=0;entryDx=0;entryDy=0;" edge="1" parent="1" source="xssJgwZg8atmYNYbF4nx-60" target="xssJgwZg8atmYNYbF4nx-49">
          <mxGeometry relative="1" as="geometry" />
        </mxCell>
        <mxCell id="xssJgwZg8atmYNYbF4nx-60" value="&lt;span&gt;Solicitar/detectar necesidad sobre datos que no tenemos ahora mismo&lt;/span&gt;" style="ellipse;whiteSpace=wrap;html=1;" vertex="1" parent="1">
          <mxGeometry x="985" y="250" width="120" height="80" as="geometry" />
        </mxCell>
        <mxCell id="xssJgwZg8atmYNYbF4nx-61" style="edgeStyle=orthogonalEdgeStyle;rounded=0;orthogonalLoop=1;jettySize=auto;html=1;exitX=0;exitY=0.5;exitDx=0;exitDy=0;entryX=0.75;entryY=0;entryDx=0;entryDy=0;" edge="1" parent="1" source="xssJgwZg8atmYNYbF4nx-62" target="xssJgwZg8atmYNYbF4nx-92">
          <mxGeometry relative="1" as="geometry" />
        </mxCell>
        <mxCell id="xssJgwZg8atmYNYbF4nx-62" value="Implementación ingesta" style="rounded=0;whiteSpace=wrap;html=1;" vertex="1" parent="1">
          <mxGeometry x="1165" y="699" width="120" height="60" as="geometry" />
        </mxCell>
        <mxCell id="xssJgwZg8atmYNYbF4nx-63" value="¿SRE?&amp;nbsp;" style="text;html=1;strokeColor=none;fillColor=none;align=center;verticalAlign=middle;whiteSpace=wrap;rounded=0;" vertex="1" parent="1">
          <mxGeometry x="830" y="730" width="110" height="20" as="geometry" />
        </mxCell>
        <mxCell id="xssJgwZg8atmYNYbF4nx-94" style="edgeStyle=orthogonalEdgeStyle;rounded=0;orthogonalLoop=1;jettySize=auto;html=1;exitX=0.5;exitY=1;exitDx=0;exitDy=0;entryX=0.5;entryY=0;entryDx=0;entryDy=0;" edge="1" parent="1" source="xssJgwZg8atmYNYbF4nx-64" target="xssJgwZg8atmYNYbF4nx-65">
          <mxGeometry relative="1" as="geometry" />
        </mxCell>
        <mxCell id="xssJgwZg8atmYNYbF4nx-64" value="Modelado de la fuente de datos a STIX" style="rounded=0;whiteSpace=wrap;html=1;" vertex="1" parent="1">
          <mxGeometry x="960" y="860" width="270" height="30" as="geometry" />
        </mxCell>
        <mxCell id="xssJgwZg8atmYNYbF4nx-65" value="Implementar Cloud Functions" style="rounded=0;whiteSpace=wrap;html=1;" vertex="1" parent="1">
          <mxGeometry x="960" y="930" width="270" height="30" as="geometry" />
        </mxCell>
        <mxCell id="xssJgwZg8atmYNYbF4nx-66" value="Implementar Dataflows" style="rounded=0;whiteSpace=wrap;html=1;" vertex="1" parent="1">
          <mxGeometry x="960" y="960" width="270" height="30" as="geometry" />
        </mxCell>
        <mxCell id="xssJgwZg8atmYNYbF4nx-67" value="Insertar datos en big query" style="rounded=0;whiteSpace=wrap;html=1;" vertex="1" parent="1">
          <mxGeometry x="960" y="990" width="270" height="30" as="geometry" />
        </mxCell>
        <mxCell id="xssJgwZg8atmYNYbF4nx-68" value="¿Equipo Data?&amp;nbsp;" style="text;html=1;strokeColor=none;fillColor=none;align=center;verticalAlign=middle;whiteSpace=wrap;rounded=0;" vertex="1" parent="1">
          <mxGeometry x="830" y="865" width="110" height="20" as="geometry" />
        </mxCell>
        <mxCell id="xssJgwZg8atmYNYbF4nx-69" value="Report en Data Studio" style="ellipse;whiteSpace=wrap;html=1;" vertex="1" parent="1">
          <mxGeometry x="985" y="1170" width="120" height="80" as="geometry" />
        </mxCell>
        <mxCell id="xssJgwZg8atmYNYbF4nx-70" value="¿Equipo Data? ¿se lo hace el usuario?" style="text;html=1;strokeColor=none;fillColor=none;align=center;verticalAlign=middle;whiteSpace=wrap;rounded=0;" vertex="1" parent="1">
          <mxGeometry x="830" y="1190" width="110" height="20" as="geometry" />
        </mxCell>
        <mxCell id="xssJgwZg8atmYNYbF4nx-71" style="edgeStyle=orthogonalEdgeStyle;rounded=0;orthogonalLoop=1;jettySize=auto;html=1;exitX=0.5;exitY=1;exitDx=0;exitDy=0;entryX=1;entryY=0.5;entryDx=0;entryDy=0;" edge="1" parent="1" source="xssJgwZg8atmYNYbF4nx-72" target="xssJgwZg8atmYNYbF4nx-64">
          <mxGeometry relative="1" as="geometry" />
        </mxCell>
        <mxCell id="xssJgwZg8atmYNYbF4nx-72" value="Acordar Formato Subida" style="rounded=0;whiteSpace=wrap;html=1;" vertex="1" parent="1">
          <mxGeometry x="1370" y="592" width="120" height="60" as="geometry" />
        </mxCell>
        <mxCell id="xssJgwZg8atmYNYbF4nx-73" style="edgeStyle=orthogonalEdgeStyle;rounded=0;orthogonalLoop=1;jettySize=auto;html=1;exitX=0.5;exitY=1;exitDx=0;exitDy=0;" edge="1" parent="1" source="xssJgwZg8atmYNYbF4nx-74" target="xssJgwZg8atmYNYbF4nx-76">
          <mxGeometry relative="1" as="geometry" />
        </mxCell>
        <mxCell id="xssJgwZg8atmYNYbF4nx-74" value="¿Documentación de tablas y columnas en big query?" style="rounded=0;whiteSpace=wrap;html=1;" vertex="1" parent="1">
          <mxGeometry x="960" y="1020" width="270" height="30" as="geometry" />
        </mxCell>
        <mxCell id="xssJgwZg8atmYNYbF4nx-75" style="edgeStyle=orthogonalEdgeStyle;rounded=0;orthogonalLoop=1;jettySize=auto;html=1;exitX=0.5;exitY=1;exitDx=0;exitDy=0;entryX=0.5;entryY=0;entryDx=0;entryDy=0;" edge="1" parent="1" source="xssJgwZg8atmYNYbF4nx-76" target="xssJgwZg8atmYNYbF4nx-69">
          <mxGeometry relative="1" as="geometry">
            <mxPoint x="1045" y="1170" as="targetPoint" />
          </mxGeometry>
        </mxCell>
        <mxCell id="xssJgwZg8atmYNYbF4nx-76" value="Subir documentación al gateway" style="rounded=0;whiteSpace=wrap;html=1;" vertex="1" parent="1">
          <mxGeometry x="985" y="1080" width="120" height="60" as="geometry" />
        </mxCell>
        <mxCell id="xssJgwZg8atmYNYbF4nx-80" value="Exit" style="rounded=0;whiteSpace=wrap;html=1;dashed=1;" vertex="1" parent="1">
          <mxGeometry x="1170" y="370" width="120" height="60" as="geometry" />
        </mxCell>
        <mxCell id="xssJgwZg8atmYNYbF4nx-81" style="edgeStyle=orthogonalEdgeStyle;rounded=0;orthogonalLoop=1;jettySize=auto;html=1;exitX=0.5;exitY=1;exitDx=0;exitDy=0;entryX=0.5;entryY=0;entryDx=0;entryDy=0;" edge="1" parent="1" source="xssJgwZg8atmYNYbF4nx-82" target="xssJgwZg8atmYNYbF4nx-55">
          <mxGeometry relative="1" as="geometry" />
        </mxCell>
        <mxCell id="xssJgwZg8atmYNYbF4nx-82" value="&lt;span&gt;Toma de&lt;br&gt;&amp;nbsp;requisitos&lt;/span&gt;" style="shape=parallelogram;perimeter=parallelogramPerimeter;whiteSpace=wrap;html=1;fixedSize=1;align=center;" vertex="1" parent="1">
          <mxGeometry x="985" y="480" width="120" height="60" as="geometry" />
        </mxCell>
        <mxCell id="xssJgwZg8atmYNYbF4nx-83" value="No" style="text;html=1;strokeColor=none;fillColor=none;align=center;verticalAlign=middle;whiteSpace=wrap;rounded=0;" vertex="1" parent="1">
          <mxGeometry x="1105" y="380" width="40" height="20" as="geometry" />
        </mxCell>
        <mxCell id="xssJgwZg8atmYNYbF4nx-84" value="No" style="text;html=1;strokeColor=none;fillColor=none;align=center;verticalAlign=middle;whiteSpace=wrap;rounded=0;" vertex="1" parent="1">
          <mxGeometry x="1115" y="605" width="40" height="20" as="geometry" />
        </mxCell>
        <mxCell id="xssJgwZg8atmYNYbF4nx-85" value="No" style="text;html=1;strokeColor=none;fillColor=none;align=center;verticalAlign=middle;whiteSpace=wrap;rounded=0;" vertex="1" parent="1">
          <mxGeometry x="1290" y="605" width="40" height="20" as="geometry" />
        </mxCell>
        <mxCell id="xssJgwZg8atmYNYbF4nx-86" value="Si" style="text;html=1;strokeColor=none;fillColor=none;align=center;verticalAlign=middle;whiteSpace=wrap;rounded=0;" vertex="1" parent="1">
          <mxGeometry x="1000" y="450" width="40" height="20" as="geometry" />
        </mxCell>
        <mxCell id="xssJgwZg8atmYNYbF4nx-87" value="Si" style="text;html=1;strokeColor=none;fillColor=none;align=center;verticalAlign=middle;whiteSpace=wrap;rounded=0;" vertex="1" parent="1">
          <mxGeometry x="1000" y="550" width="40" height="20" as="geometry" />
        </mxCell>
        <mxCell id="xssJgwZg8atmYNYbF4nx-88" value="Si" style="text;html=1;strokeColor=none;fillColor=none;align=center;verticalAlign=middle;whiteSpace=wrap;rounded=0;" vertex="1" parent="1">
          <mxGeometry x="1184" y="670" width="40" height="20" as="geometry" />
        </mxCell>
        <mxCell id="xssJgwZg8atmYNYbF4nx-89" value="Si" style="text;html=1;strokeColor=none;fillColor=none;align=center;verticalAlign=middle;whiteSpace=wrap;rounded=0;" vertex="1" parent="1">
          <mxGeometry x="953" y="770" width="40" height="20" as="geometry" />
        </mxCell>
        <mxCell id="xssJgwZg8atmYNYbF4nx-90" value="¿Equipo Data?&amp;nbsp;" style="text;html=1;strokeColor=none;fillColor=none;align=center;verticalAlign=middle;whiteSpace=wrap;rounded=0;" vertex="1" parent="1">
          <mxGeometry x="840" y="615" width="110" height="20" as="geometry" />
        </mxCell>
        <mxCell id="xssJgwZg8atmYNYbF4nx-91" style="edgeStyle=orthogonalEdgeStyle;rounded=0;orthogonalLoop=1;jettySize=auto;html=1;exitX=0.5;exitY=1;exitDx=0;exitDy=0;" edge="1" parent="1" source="xssJgwZg8atmYNYbF4nx-92" target="xssJgwZg8atmYNYbF4nx-64">
          <mxGeometry relative="1" as="geometry" />
        </mxCell>
        <mxCell id="xssJgwZg8atmYNYbF4nx-92" value="Transfer a GCP" style="rounded=0;whiteSpace=wrap;html=1;" vertex="1" parent="1">
          <mxGeometry x="985" y="750" width="120" height="60" as="geometry" />
        </mxCell>
        <mxCell id="xssJgwZg8atmYNYbF4nx-98" value="SOPORTE equipo Data" style="rounded=1;whiteSpace=wrap;html=1;fillColor=#d5e8d4;strokeColor=#82b366;rotation=90;fontStyle=1" vertex="1" parent="1">
          <mxGeometry x="1200" y="960" width="120" height="60" as="geometry" />
        </mxCell>
      </root>
    </mxGraphModel>
  </diagram>
</mxfile>
